# xmcd CD database file
#
# Track frame offsets:
#	150
#	17210
#	27745
#	46156
#	59562
#	71008
#	81915
#	102678
#	116495
#	129768
#	144581
#	161989
#	173876
#	190611
#	206213
#	217780
#	234522
#	248690
#	258733
#	272513
#	287211
#	303605
#	316158
#	328850
#
# Disc length: 4585 seconds
#
# Revision: 0
# Processed by: cddbd v1.5.2PL0 Copyright (c) Steve Scherf et al.
# Submitted via: CDex 1.51
#
DISCID=6f11e718
DTITLE=Various Artist - 10
DYEAR=2007
DGENRE=Country
TTITLE0=Leaving Of Liverpoor
TTITLE1=No Brakes
TTITLE2=When You Come Back Down
TTITLE3=Blue Crear Sky
TTITLE4=Dance With Me
TTITLE5=The Sad But True Story Of Ray Mingus
TTITLE6=Another Good Reason
TTITLE7=Just Playing Possum
TTITLE8=Liza Jane
TTITLE9=Cotton Eyed Joe
TTITLE10=I'll Tell Me Ma
TTITLE11=Hilly Billy Rock Hilly Billy Roll
TTITLE12=Sin Wagon
TTITLE13=Same Beach
TTITLE14=Sold
TTITLE15=Trail Of Tears
TTITLE16=1-800 I'm A Fool
TTITLE17=Drinkin' Bone
TTITLE18=Ten Rounds
TTITLE19=Summer Time Blues
TTITLE20=Thank God I'm A Country Boy
TTITLE21=Okie From Muskogee
TTITLE22=Folsom Prison Blues
TTITLE23=Blue Kentucky Girl
EXTD=YEAR: 2007
EXTT0=
EXTT1=
EXTT2=
EXTT3=
EXTT4=
EXTT5=
EXTT6=
EXTT7=
EXTT8=
EXTT9=
EXTT10=
EXTT11=
EXTT12=
EXTT13=
EXTT14=
EXTT15=
EXTT16=
EXTT17=
EXTT18=
EXTT19=
EXTT20=
EXTT21=
EXTT22=
EXTT23=
PLAYORDER=
